<?xml version="1.0" standalone="no"?><!DOCTYPE svg PUBLIC "-//W3C//DTD SVG 1.1//EN" "http://www.w3.org/Graphics/SVG/1.1/DTD/svg11.dtd"><svg t="1538736755639" class="icon" style="" viewBox="0 0 1024 1024" version="1.1" xmlns="http://www.w3.org/2000/svg" p-id="1177" xmlns:xlink="http://www.w3.org/1999/xlink" width="16" height="16"><defs><style type="text/css"></style></defs><path d="M959.36 920.96C944 739.2 819.84 588.8 651.52 534.4c70.4-45.44 117.12-124.16 117.12-214.4 0-141.44-115.2-256-256.64-256-142.08 0-256.64 114.56-256.64 256 0 90.24 46.72 168.96 117.12 214.4C204.16 588.8 80 739.2 64.64 920.96c0 3.2-0.64 5.76 0 10.24C65.92 947.2 80 960 96 960c17.92 0 32-14.72 32-32 16.64-197.76 182.4-352 384-352s366.72 154.24 384 352c0 17.28 14.08 32 32 32 16 0 30.08-12.8 31.36-28.8 0.64-4.48 0-7.04 0-10.24zM319.36 320c0-106.24 86.4-192 192.64-192 106.24 0 192.64 85.76 192.64 192S618.24 512 512 512c-106.24 0-192.64-85.76-192.64-192z" p-id="1178" fill="#666666"></path></svg>